<svg width="40" height="40" viewBox="0 0 48 48" fill="none" xmlns="http://www.w3.org/2000/svg">
<path d="M31.2 6.0768V23.88C31.1992 25.4082 30.7122 26.8966 29.8094 28.1296C28.9066 29.3627 27.6348 30.2765 26.1782 30.7388C24.7216 31.2012 23.1557 31.188 21.707 30.7013C20.2584 30.2146 19.0021 29.2796 18.1201 28.0316C17.2381 26.7836 16.7761 25.2873 16.801 23.7593C16.8258 22.2312 17.3362 20.7507 18.2582 19.532C19.1803 18.3133 20.4662 17.4196 21.9299 16.9802C23.3936 16.5408 24.9592 16.5786 26.4 17.088V0C38.5272 1.2024 48 11.436 48 23.88C48 37.1352 37.2552 47.88 24 47.88C10.7448 47.88 0 37.1352 0 23.88C0 11.436 9.4728 1.2024 21.6 0V4.8288C16.7585 5.44484 12.3332 7.88128 9.22365 11.6429C6.11405 15.4046 4.55347 20.2091 4.85909 25.0801C5.16471 29.951 7.31359 34.5228 10.869 37.8663C14.4244 41.2097 19.1195 43.074 24 43.08C28.4576 43.0825 32.7772 41.5339 36.2179 38.6998C39.6585 35.8657 42.0059 31.9227 42.8573 27.5471C43.7086 23.1716 43.011 18.6361 40.8841 14.7187C38.7571 10.8012 35.3333 7.74592 31.2 6.0768V6.0768Z" fill="#A3A4A7"/>
</svg>
