<svg width="184" height="32" viewBox="0 0 184 32" xmlns="http://www.w3.org/2000/svg">
<path d="M16.0091 1.51384H0.359742V31H6.10667V18.0031H15.3902V13.0519H6.10667V6.46504H16.0091V1.51384ZM35.2754 0.850735C25.9919 0.850735 19.5377 7.30498 19.5377 16.279C19.5377 25.2531 25.9919 31.6631 35.2754 31.6631C44.5589 31.6631 51.0132 25.2531 51.0132 16.279C51.0132 7.30498 44.5589 0.850735 35.2754 0.850735ZM35.2754 26.4467C29.5285 26.4467 25.4614 22.247 25.4614 16.279C25.4614 10.3111 29.5285 6.06718 35.2754 6.06718C41.0224 6.06718 45.0894 10.3111 45.0894 16.279C45.0894 22.247 41.0224 26.4467 35.2754 26.4467ZM77.7056 23.2195C75.9816 25.2531 73.5502 26.4467 70.8093 26.4467C65.8581 26.4467 60.8185 22.9101 60.8185 16.3674C60.8185 10.93 64.6645 6.06718 70.5883 6.06718C71.6493 6.06718 75.009 6.28821 77.7056 9.38271V2.66323C75.009 1.20439 72.5334 0.850735 70.4557 0.850735C66.256 0.850735 62.5868 1.95592 59.6249 4.74096C57.1051 7.08394 54.8948 10.93 54.8948 16.279C54.8948 20.6113 56.221 24.2805 59.6249 27.5518C62.1005 29.8948 65.2392 31.6631 70.4115 31.6631C73.5944 31.6631 75.9374 30.8674 77.7056 29.939V23.2195ZM82.9891 1.51384V19.5504C82.9891 22.3354 83.4312 25.1647 85.1994 27.4192C87.3214 30.2043 91.0348 31.6631 94.8366 31.6631C98.6384 31.6631 102.352 30.2043 104.474 27.4192C106.242 25.1647 106.684 22.3354 106.684 19.5504V1.51384H100.937V20.0366C100.937 22.2912 100.186 23.6616 99.5226 24.4131C98.6826 25.4299 97.1354 26.4467 94.8366 26.4467C92.5378 26.4467 90.9906 25.4299 90.1506 24.4131C89.4875 23.6616 88.736 22.2912 88.736 20.0366V1.51384H82.9891ZM130.931 4.29889C127.925 1.20439 124.432 0.850735 122.576 0.850735C116.033 0.850735 113.115 5.18303 113.115 9.51533C113.115 12.5214 114.486 14.1571 115.458 14.997C116.961 16.3232 118.818 17.0305 120.365 17.561C122.045 18.1357 123.813 18.7104 124.919 19.7272C125.714 20.4787 126.068 21.3186 126.068 22.3796C126.068 24.8552 124.123 26.4467 121.515 26.4467C119.437 26.4467 116.74 25.3857 115.326 22.5122L111.568 26.093C113.115 28.3476 116.298 31.6631 121.736 31.6631C127.836 31.6631 131.992 27.7287 131.992 21.9817C131.992 18.9757 130.798 16.9863 129.472 15.7927C127.969 14.4223 125.803 13.6266 123.504 12.8309C121.647 12.1678 120.675 11.8141 119.967 11.151C119.26 10.5321 119.039 9.86899 119.039 9.16168C119.039 7.65864 120.012 5.71352 123.106 5.71352C124.167 5.71352 126.201 5.93456 127.925 8.23333L130.931 4.29889ZM153.396 1.51384H137.039V31H153.396V26.0488H142.786V18.0031H152.954V13.0519H142.786V6.46504H153.396V1.51384ZM158.97 1.51384V31H166.574C170.685 31 173.912 30.6021 177.36 28.1707C181.25 25.4299 183.284 21.186 183.284 16.279C183.284 11.372 181.206 7.08394 177.626 4.3873C174.354 1.95592 170.773 1.51384 166.662 1.51384H158.97ZM164.717 6.46504H166.485C168.43 6.46504 171.348 6.64187 173.735 8.41015C176.078 10.1784 177.36 13.1845 177.36 16.279C177.36 19.4177 176.034 22.4238 173.691 24.1037C171.127 25.9604 167.944 26.0488 166.485 26.0488H164.717V6.46504Z" fill="#5562d4" fill-opacity="0.5" />
</svg>
