<svg id="Layer_1" enable-background="new 0 0 511.418 511.418" height="40" viewBox="0 0 511.418 511.418" width="40" xmlns="http://www.w3.org/2000/svg"><path fill="#16436e" d="m470.148 116.4c-6.32-9.71-19.32-12.46-29.04-6.15l-37.02 24.05c-29.823 21.67-42.604 58.952-34.228 94.061 17.197 72.081-36.238 141.749-109.513 144.561-66.904 2.567-121.949-50.909-121.949-117.241 0-64.8 52.53-117.33 117.33-117.33 6.186 0 10.96.506 10.778.49 5.669.506 10.552-3.96 10.552-9.652v-108.179c0-11.591-9.484-20.989-21.075-21-68.385-.066-132.684 26.53-181.035 74.89-99.912 99.891-99.951 261.631 0 361.56 99.891 99.913 261.631 99.95 361.56 0 87.904-87.884 97.553-221.906 33.64-320.06z"/><path fill="#16436e" d="m423.461 62.725c-28.066-24.413-61.696-42.696-97.254-52.874-11.149-3.188-22.776 3.261-25.968 14.411-2.158 7.534-1.511-7.694-1.511 146.418h-43c-46.869 0-85 38.131-85 85s38.131 85 85 85 85-38.131 85-85c0-11.313 0-184.745 0-196.058 19.968 8.698 38.71 20.477 55.168 34.792 3.978 3.46 8.886 5.155 13.773 5.155 19.264.001 28.499-24.051 13.792-36.844zm-125.066 192.955c0 23.564-19.103 42.666-42.667 42.666-23.564 0-42.667-19.103-42.667-42.666 0-23.564 19.103-42.667 42.667-42.667h42.667z"/></svg>